HIERARCHY
ROOT Root
{
  OFFSET 0.0 0.0 0.0
  CHANNELS 6 Xposition Yposition Zposition Zrotation Yrotation Xrotation
  JOINT Hips
  {
    OFFSET 0.0 100.0 0.0
    CHANNELS 6 Xposition Yposition Zposition Zrotation Yrotation Xrotation
    JOINT Spine1
    {
      OFFSET 5.003913 -0.037094 -0.013727
      CHANNELS 3 Zrotation Yrotation Xrotation
      JOINT Spine2
      {
        OFFSET 7.125363 -1e-06 0.0
        CHANNELS 3 Zrotation Yrotation Xrotation
        JOINT Chest
        {
          OFFSET 7.594027 1e-06 0.0
          CHANNELS 3 Zrotation Yrotation Xrotation
          JOINT Neck1
          {
            OFFSET 26.313086 -0.460272 -0.181672
            CHANNELS 3 Zrotation Yrotation Xrotation
            JOINT Neck2
            {
              OFFSET 8.045911 0.0 0.0
              CHANNELS 3 Zrotation Yrotation Xrotation
              JOINT Head
              {
                OFFSET 6.432774 0.0 0.0
                CHANNELS 3 Zrotation Yrotation Xrotation
                JOINT HeadEnd
                {
                  OFFSET 16.169773 0.06451 0.00362
                  CHANNELS 3 Zrotation Yrotation Xrotation
                }
                JOINT Jaw
                {
                  OFFSET 0.108741 3.12938 0.002639
                  CHANNELS 3 Zrotation Yrotation Xrotation
                }
                JOINT LeftEye
                {
                  OFFSET 4.45173 8.166359 3.206392
                  CHANNELS 3 Zrotation Yrotation Xrotation
                }
                JOINT RightEye
                {
                  OFFSET 4.436895 8.135758 -3.222429
                  CHANNELS 3 Zrotation Yrotation Xrotation
                }
              }
            }
          }
          JOINT LeftShoulder
          {
            OFFSET 23.218927 5.195579 1.621656
            CHANNELS 3 Zrotation Yrotation Xrotation
            JOINT LeftArm
            {
              OFFSET 15.902118 2e-06 -2e-06
              CHANNELS 3 Zrotation Yrotation Xrotation
              JOINT LeftForeArm
              {
                OFFSET 28.739307 0.0 -1e-06
                CHANNELS 3 Zrotation Yrotation Xrotation
                JOINT LeftHand
                {
                  OFFSET 27.093981 -4e-06 0.0
                  CHANNELS 3 Zrotation Yrotation Xrotation
                  JOINT LeftHandThumb1
                  {
                    OFFSET 2.276781 3.380274 0.83384
                    CHANNELS 3 Zrotation Yrotation Xrotation
                    JOINT LeftHandThumb2
                    {
                      OFFSET 4.705309 -1e-06 -1e-06
                      CHANNELS 3 Zrotation Yrotation Xrotation
                      JOINT LeftHandThumb3
                      {
                        OFFSET 2.798515 0.0 3e-06
                        CHANNELS 3 Zrotation Yrotation Xrotation
                        JOINT LeftHandThumbEnd
                        {
                          OFFSET 3.180793 4e-06 -4e-06
                          CHANNELS 3 Zrotation Yrotation Xrotation
                        }
                      }
                    }
                  }
                  JOINT LeftHandIndex1
                  {
                    OFFSET 3.247786 2.352677 0.137192
                    CHANNELS 3 Zrotation Yrotation Xrotation
                    JOINT LeftHandIndex2
                    {
                      OFFSET 6.367095 1e-06 0.0
                      CHANNELS 3 Zrotation Yrotation Xrotation
                      JOINT LeftHandIndex3
                      {
                        OFFSET 3.662364 0.0 0.0
                        CHANNELS 3 Zrotation Yrotation Xrotation
                        JOINT LeftHandIndex4
                        {
                          OFFSET 2.329242 4e-06 -4e-06
                          CHANNELS 3 Zrotation Yrotation Xrotation
                          JOINT LeftHandIndexEnd
                          {
                            OFFSET 2.767823 1e-06 0.0
                            CHANNELS 3 Zrotation Yrotation Xrotation
                          }
                        }
                      }
                    }
                  }
                  JOINT LeftHandMiddle1
                  {
                    OFFSET 3.163612 0.945023 -0.406112
                    CHANNELS 3 Zrotation Yrotation Xrotation
                    JOINT LeftHandMiddle2
                    {
                      OFFSET 6.276789 3e-06 0.0
                      CHANNELS 3 Zrotation Yrotation Xrotation
                      JOINT LeftHandMiddle3
                      {
                        OFFSET 4.35652 -1e-06 4e-06
                        CHANNELS 3 Zrotation Yrotation Xrotation
                        JOINT LeftHandMiddle4
                        {
                          OFFSET 2.996877 0.0 8e-06
                          CHANNELS 3 Zrotation Yrotation Xrotation
                          JOINT LeftHandMiddleEnd
                          {
                            OFFSET 2.323256 3e-06 -4e-06
                            CHANNELS 3 Zrotation Yrotation Xrotation
                          }
                        }
                      }
                    }
                  }
                  JOINT LeftHandRing1
                  {
                    OFFSET 2.882606 -0.309162 0.107445
                    CHANNELS 3 Zrotation Yrotation Xrotation
                    JOINT LeftHandRing2
                    {
                      OFFSET 6.033198 0.0 4e-06
                      CHANNELS 3 Zrotation Yrotation Xrotation
                      JOINT LeftHandRing3
                      {
                        OFFSET 4.350578 3e-06 0.0
                        CHANNELS 3 Zrotation Yrotation Xrotation
                        JOINT LeftHandRing4
                        {
                          OFFSET 2.651321 2e-06 -7e-06
                          CHANNELS 3 Zrotation Yrotation Xrotation
                          JOINT LeftHandRingEnd
                          {
                            OFFSET 1.937663 1e-06 -4e-06
                            CHANNELS 3 Zrotation Yrotation Xrotation
                          }
                        }
                      }
                    }
                  }
                  JOINT LeftHandPinky1
                  {
                    OFFSET 2.865315 -1.525436 0.575687
                    CHANNELS 3 Zrotation Yrotation Xrotation
                    JOINT LeftHandPinky2
                    {
                      OFFSET 5.54936 1e-06 -8e-06
                      CHANNELS 3 Zrotation Yrotation Xrotation
                      JOINT LeftHandPinky3
                      {
                        OFFSET 3.070974 0.0 -4e-06
                        CHANNELS 3 Zrotation Yrotation Xrotation
                        JOINT LeftHandPinky4
                        {
                          OFFSET 1.549672 1e-06 0.0
                          CHANNELS 3 Zrotation Yrotation Xrotation
                          JOINT LeftHandPinkyEnd
                          {
                            OFFSET 1.952123 0.0 0.0
                            CHANNELS 3 Zrotation Yrotation Xrotation
                          }
                        }
                      }
                    }
                  }
                }
              }
            }
          }
          JOINT RightShoulder
          {
            OFFSET 23.161716 5.296122 -1.380114
            CHANNELS 3 Zrotation Yrotation Xrotation
            JOINT RightArm
            {
              OFFSET -16.027195 -2e-06 1.1e-05
              CHANNELS 3 Zrotation Yrotation Xrotation
              JOINT RightForeArm
              {
                OFFSET -28.736639 4e-06 2e-06
                CHANNELS 3 Zrotation Yrotation Xrotation
                JOINT RightHand
                {
                  OFFSET -27.133619 6e-06 0.0
                  CHANNELS 3 Zrotation Yrotation Xrotation
                  JOINT RightHandThumb1
                  {
                    OFFSET -2.274328 -3.351035 -0.83067
                    CHANNELS 3 Zrotation Yrotation Xrotation
                    JOINT RightHandThumb2
                    {
                      OFFSET -4.703594 -3e-06 2e-06
                      CHANNELS 3 Zrotation Yrotation Xrotation
                      JOINT RightHandThumb3
                      {
                        OFFSET -2.794935 -4e-06 -3e-06
                        CHANNELS 3 Zrotation Yrotation Xrotation
                        JOINT RightHandThumbEnd
                        {
                          OFFSET -3.183852 4e-06 1e-06
                          CHANNELS 3 Zrotation Yrotation Xrotation
                        }
                      }
                    }
                  }
                  JOINT RightHandIndex1
                  {
                    OFFSET -3.253496 -2.33755 -0.127667
                    CHANNELS 3 Zrotation Yrotation Xrotation
                    JOINT RightHandIndex2
                    {
                      OFFSET -6.344434 0.0 0.0
                      CHANNELS 3 Zrotation Yrotation Xrotation
                      JOINT RightHandIndex3
                      {
                        OFFSET -3.654871 0.0 -8e-06
                        CHANNELS 3 Zrotation Yrotation Xrotation
                        JOINT RightHandIndex4
                        {
                          OFFSET -2.327586 -1e-06 0.0
                          CHANNELS 3 Zrotation Yrotation Xrotation
                          JOINT RightHandIndexEnd
                          {
                            OFFSET -2.770001 3e-06 8e-06
                            CHANNELS 3 Zrotation Yrotation Xrotation
                          }
                        }
                      }
                    }
                  }
                  JOINT RightHandMiddle1
                  {
                    OFFSET -3.168223 -0.944764 0.411762
                    CHANNELS 3 Zrotation Yrotation Xrotation
                    JOINT RightHandMiddle2
                    {
                      OFFSET -6.266691 -1e-06 -4e-06
                      CHANNELS 3 Zrotation Yrotation Xrotation
                      JOINT RightHandMiddle3
                      {
                        OFFSET -4.348901 0.0 0.0
                        CHANNELS 3 Zrotation Yrotation Xrotation
                        JOINT RightHandMiddle4
                        {
                          OFFSET -3.00024 2e-06 -4e-06
                          CHANNELS 3 Zrotation Yrotation Xrotation
                          JOINT RightHandMiddleEnd
                          {
                            OFFSET -2.321477 -4e-06 -4e-06
                            CHANNELS 3 Zrotation Yrotation Xrotation
                          }
                        }
                      }
                    }
                  }
                  JOINT RightHandRing1
                  {
                    OFFSET -2.885654 0.293261 -0.119232
                    CHANNELS 3 Zrotation Yrotation Xrotation
                    JOINT RightHandRing2
                    {
                      OFFSET -6.032835 -1e-06 -4e-06
                      CHANNELS 3 Zrotation Yrotation Xrotation
                      JOINT RightHandRing3
                      {
                        OFFSET -4.33881 0.0 -4e-06
                        CHANNELS 3 Zrotation Yrotation Xrotation
                        JOINT RightHandRing4
                        {
                          OFFSET -2.654903 -4e-06 -4e-06
                          CHANNELS 3 Zrotation Yrotation Xrotation
                          JOINT RightHandRingEnd
                          {
                            OFFSET -1.935122 0.0 4e-06
                            CHANNELS 3 Zrotation Yrotation Xrotation
                          }
                        }
                      }
                    }
                  }
                  JOINT RightHandPinky1
                  {
                    OFFSET -2.866241 1.503904 -0.60527
                    CHANNELS 3 Zrotation Yrotation Xrotation
                    JOINT RightHandPinky2
                    {
                      OFFSET -5.553177 -2e-06 0.0
                      CHANNELS 3 Zrotation Yrotation Xrotation
                      JOINT RightHandPinky3
                      {
                        OFFSET -3.062664 -1e-06 -4e-06
                        CHANNELS 3 Zrotation Yrotation Xrotation
                        JOINT RightHandPinky4
                        {
                          OFFSET -1.546529 2e-06 4e-06
                          CHANNELS 3 Zrotation Yrotation Xrotation
                          JOINT RightHandPinkyEnd
                          {
                            OFFSET -1.952341 0.0 -4e-06
                            CHANNELS 3 Zrotation Yrotation Xrotation
                          }
                        }
                      }
                    }
                  }
                }
              }
            }
          }
        }
      }
    }
    JOINT LeftLeg
    {
      OFFSET -8.443107 2.567604 10.043214
      CHANNELS 3 Zrotation Yrotation Xrotation
      JOINT LeftShin
      {
        OFFSET 43.229198 1e-06 -1e-06
        CHANNELS 3 Zrotation Yrotation Xrotation
        JOINT LeftFoot
        {
          OFFSET 42.298611 1e-06 1e-06
          CHANNELS 3 Zrotation Yrotation Xrotation
          JOINT LeftToeBase
          {
            OFFSET 14.165858 1e-06 0.0
            CHANNELS 3 Zrotation Yrotation Xrotation
            JOINT LeftToeEnd
            {
              OFFSET 6.7141 -0.234461 0.0
              CHANNELS 3 Zrotation Yrotation Xrotation
            }
          }
        }
      }
    }
    JOINT RightLeg
    {
      OFFSET -8.303923 2.592729 -10.047278
      CHANNELS 3 Zrotation Yrotation Xrotation
      JOINT RightShin
      {
        OFFSET -43.369682 0.0 1e-06
        CHANNELS 3 Zrotation Yrotation Xrotation
        JOINT RightFoot
        {
          OFFSET -42.260784 4e-06 2e-06
          CHANNELS 3 Zrotation Yrotation Xrotation
          JOINT RightToeBase
          {
            OFFSET -14.222245 -2e-06 -1e-06
            CHANNELS 3 Zrotation Yrotation Xrotation
            JOINT RightToeEnd
            {
              OFFSET -6.660062 0.232574 -2e-06
              CHANNELS 3 Zrotation Yrotation Xrotation
            }
          }
        }
      }
    }
  }
}
MOTION
Frames: 4
Frame Time: 0.03333333333333333
0.0 0.0 0.0 0.0 -0.0 0.0 0.66165 99.830246 -4.413357 89.885376 4.223226 90.06813 0.7253 1.172258 -0.124609 -10.699852 -0.023687 -0.444446 16.107491 -0.069565 -2.097767 25.074844 -7.207206 2.688607 -2.680504 -0.333208 1.149615 -32.149979 3.549639 -1.189599 0.000125 0.000113 -2.1e-05 -0.003315 0.002646 0.110281 0.057959 -0.016218 0.082719 0.055368 0.015141 0.140362 -117.506371 -70.290581 134.683624 36.713863 -59.261837 13.240454 25.772667 0.28725 -0.112039 -0.56894 9.772277 11.314086 17.688055 -26.393284 52.546844 -19.482342 -14.390758 29.477262 0.005436 -8.775537 -0.005092 16.048828 -17.992722 6.157315 -0.607589 -1.8005 -3.91574 -4.812915 -11.059232 -2.93983 0.007261 -21.005011 0.000455 -5.007782 -25.072289 -4.047985 -0.004966 0.007781 0.001869 -10.639778 -5.695714 -3.585412 10.581658 -17.937992 -3.144644 -0.005959 -13.833246 0.024278 -0.497612 -31.217728 -4.048175 -11.824088 -60.003063 7.693099 -13.99531 -7.160084 -2.906561 13.784857 -8.410747 -3.221709 0.339025 -34.253532 0.775729 -0.979371 -17.773462 2.647858 -0.006294 0.0 0.008394 -17.35755 -20.135895 -4.241672 21.779961 -1.638778 3.885604 -0.003686 -6.349293 -0.009144 -1.704525 -22.634588 -6.199159 -0.001204 0.000263 0.004455 76.210449 -80.268936 119.676544 33.48848 -68.918152 -2.609881 24.652231 0.067371 0.077956 -4.721741 -2.677914 11.394043 22.184959 -20.450457 50.02726 -16.699011 -16.741823 28.508045 -0.003856 -12.681067 0.020612 15.762511 -17.908623 2.996275 -0.103993 -1.518341 -4.297736 -5.038716 -5.616776 -2.955001 0.004174 -11.038642 0.002411 -6.09779 -15.928697 -3.833917 0.006291 0.003154 0.001247 -10.280357 -5.686701 -4.364977 11.021322 -11.310517 -2.374117 -1.381829 -14.242451 -6.32768 -0.632413 -26.943949 -3.832785 -4.556743 -49.998875 -3.584331 -13.704957 -7.371513 -3.736955 18.14292 -14.076404 -3.263037 -0.001296 -18.832806 0.004096 -0.449942 -8.461582 2.589222 0.006588 -0.008531 -0.0 -15.910748 -20.115273 -5.489576 30.403027 -7.188919 1.721103 -0.010339 -8.162939 -0.00213 -1.857355 -22.88673 -6.177476 0.007728 -0.018107 -1e-06 -177.184814 -1.162108 -7.136271 13.910674 -0.068869 0.231197 -81.448029 -4.755841 -5.322586 -5.516304 1.552251 2.121055 -1.004441 0.000385 -0.00056 6.277263 -5.983466 -1.525897 5.779194 -0.038048 0.37618 -76.946129 0.481311 -6.909222 -5.387866 0.62179 1.652699 -1.000837 0.001329 0.000261 
0.0 0.0 0.0 0.0 -0.0 0.0 0.621894 99.848053 -4.43464 89.887787 4.245955 89.96701 0.720245 1.15054 -0.128435 -10.691477 0.005766 -0.406026 16.074669 -0.093945 -2.145766 25.082071 -7.165044 2.674125 -2.676355 -0.385256 1.222279 -32.070347 3.509856 -1.151285 9e-06 -0.000137 -0.0 -0.000204 0.008998 0.127487 0.056063 -0.014869 0.105526 0.047881 0.026965 0.152829 -117.532227 -70.149323 134.747055 36.666214 -59.110836 13.30511 25.885015 0.196914 -0.171392 -0.510936 9.741394 11.735275 17.660381 -26.433609 52.682674 -19.466883 -14.419446 29.46937 0.003027 -8.778669 0.01937 16.006899 -18.009209 6.144146 -0.60557 -1.798811 -3.892828 -4.818017 -11.057656 -2.966699 -0.005353 -20.994175 0.000668 -5.02654 -25.061144 -4.043915 0.0 -0.0 0.0 -10.646255 -5.705866 -3.578442 10.583253 -17.936989 -3.116199 -0.005853 -13.842257 0.001006 -0.498606 -31.204659 -4.041866 -11.908406 -59.988861 7.808045 -13.998229 -7.1751 -2.892862 13.782572 -8.398165 -3.237647 0.323035 -34.249844 0.810427 -0.967805 -17.757759 2.62218 -0.019125 0.015911 0.020336 -17.369589 -20.138086 -4.239301 21.77146 -1.627198 3.877064 -0.00523 -6.338807 0.003238 -1.692008 -22.605856 -6.22052 -5.5e-05 0.004358 -0.006699 76.307243 -80.281326 119.528679 33.358749 -69.016098 -2.405864 24.772892 0.171421 0.115032 -4.710189 -2.66798 11.083181 22.195864 -20.479843 50.13744 -16.732071 -16.77705 28.566711 -0.001878 -12.703358 -0.000814 15.822122 -17.916155 2.976607 -0.107546 -1.519376 -4.278781 -5.044116 -5.621302 -2.969518 0.000635 -11.043246 0.003035 -6.119404 -15.933252 -3.82629 0.004151 -0.006256 -0.004247 -10.301112 -5.691881 -4.338082 11.046713 -11.318003 -2.380973 -1.385014 -14.266433 -6.32924 -0.637846 -26.933571 -3.842183 -4.46389 -49.981804 -3.660153 -13.72215 -7.375626 -3.718637 18.153208 -14.074281 -3.260715 0.00442 -18.833696 0.005851 -0.44211 -8.466393 2.572215 0.002648 -0.008907 -0.0 -15.947025 -20.130156 -5.489192 30.458359 -7.20887 1.730569 -0.006466 -8.178095 0.005978 -1.866287 -22.907003 -6.15896 0.002101 0.000187 0.007862 -177.037109 -1.159146 -7.127723 13.659079 -0.066571 0.221146 -81.276413 -4.829888 -5.27188 -5.584505 1.550105 2.112232 -1.003787 0.003058 0.000585 6.342383 -5.965304 -1.503456 5.684364 -0.037949 0.334462 -76.943855 0.557318 -6.884648 -5.510567 0.624278 1.65157 -0.997348 0.000704 -2.4e-05 
0.0 0.0 0.0 0.0 -0.0 0.0 0.5895 99.856209 -4.422094 89.888237 4.278475 89.896248 0.706886 1.138741 -0.127577 -10.706199 0.007714 -0.399269 16.066498 -0.114636 -2.157659 25.107594 -7.123513 2.673072 -2.664424 -0.412379 1.280494 -32.022404 3.509782 -1.089454 2e-06 6.7e-05 -0.000902 0.006673 0.010897 0.120991 0.047598 -0.024395 0.096259 0.038725 0.039153 0.147348 -117.111382 -69.954147 134.338669 36.533989 -59.008656 13.34685 26.035543 0.124083 -0.157189 -0.606941 9.719896 11.879702 17.632389 -26.329948 52.447857 -19.470594 -14.396567 29.375837 -0.009993 -8.772214 0.009275 15.996794 -17.988756 6.18155 -0.610979 -1.793782 -3.896333 -4.7949 -11.03766 -2.923462 0.009454 -20.955223 -0.007569 -5.008184 -24.990004 -4.040404 0.002739 -0.0064 -0.008097 -10.634334 -5.679468 -3.557434 10.592547 -17.92688 -3.097462 0.013178 -13.820697 -0.019593 -0.489884 -31.168762 -4.00907 -11.967749 -59.927105 8.030453 -13.977153 -7.130694 -2.852993 13.785819 -8.411221 -3.237121 0.376516 -34.206978 0.766583 -0.948867 -17.727417 2.644593 -0.001436 -0.006956 0.006858 -17.33707 -20.075111 -4.183996 21.76243 -1.644759 3.837764 -0.000569 -6.331598 0.01084 -1.696485 -22.561701 -6.179316 0.001518 0.00348 -0.003087 76.76519 -80.060394 118.598747 33.217152 -68.845474 -2.284372 24.799646 0.218875 0.10049 -4.617237 -2.66265 10.764286 22.178022 -20.410828 49.912457 -16.694147 -16.723032 28.47014 -0.011305 -12.672309 0.008373 15.801644 -17.879402 2.997235 -0.10814 -1.511771 -4.288088 -5.027794 -5.607576 -2.950116 0.013277 -11.022392 0.004249 -6.077588 -15.884311 -3.837362 0.002733 0.008131 0.00607 -10.265164 -5.670019 -4.356326 11.018898 -11.320223 -2.352748 -1.363165 -14.233924 -6.324962 -0.614424 -26.9247 -3.793194 -4.458563 -49.903126 -3.561316 -13.688348 -7.348348 -3.727639 18.133259 -14.068123 -3.235492 0.017622 -18.773109 0.00658 -0.427373 -8.477711 2.551776 -0.002063 0.007283 -0.001641 -15.884353 -20.075085 -5.482456 30.382349 -7.213099 1.733942 0.009655 -8.171114 0.002537 -1.849684 -22.853361 -6.154335 -0.002581 0.008974 -0.003815 -176.89949 -1.159224 -7.094908 13.480275 -0.068957 0.226226 -81.104095 -4.937043 -5.295938 -5.577548 1.569139 2.118431 -1.000056 -0.003387 -0.001581 6.422946 -5.946038 -1.438109 5.624888 -0.04296 0.292904 -76.90538 0.603735 -6.815597 -5.53192 0.616293 1.642676 -1.007511 0.000211 0.000207 
0.0 0.0 0.0 0.0 -0.0 0.0 0.577544 99.839447 -4.428921 89.881996 4.307819 89.801659 0.697279 1.135847 -0.142206 -10.723981 0.0142 -0.366818 16.080101 -0.131211 -2.183981 25.217653 -7.112297 2.724196 -2.67881 -0.433657 1.293036 -32.064274 3.493996 -1.037171 3e-06 6.3e-05 0.000853 0.02054 0.011112 0.112282 0.040976 -0.033512 0.086305 0.031487 0.048562 0.135371 -117.125984 -69.917564 134.39032 36.405132 -59.064922 13.524843 26.240429 0.133627 -0.174202 -0.688988 9.723916 12.140722 17.648935 -26.282455 52.361816 -19.490486 -14.393316 29.400587 0.002841 -8.780979 -0.006635 16.057487 -18.037718 6.155513 -0.605638 -1.785847 -3.899489 -4.816511 -11.05839 -2.933259 -0.013159 -20.987654 0.009817 -5.011701 -25.035185 -4.05227 -0.005337 -0.012864 0.0049 -10.649473 -5.700447 -3.564305 10.585291 -17.926744 -3.118527 0.000553 -13.834922 -0.015482 -0.539764 -31.22447 -4.022939 -11.694812 -60.115814 7.758806 -13.990385 -7.150419 -2.849046 13.776542 -8.395005 -3.23956 0.344954 -34.232708 0.765622 -0.960608 -17.719011 2.603304 0.001502 -0.013534 0.00608 -17.357086 -20.110498 -4.189746 21.758381 -1.629379 3.857337 -0.005599 -6.339798 -0.000187 -1.695904 -22.625374 -6.190616 0.010768 -0.004237 -0.008477 76.916977 -80.172089 118.617081 33.078629 -68.903526 -2.008518 24.966988 0.304577 0.096644 -4.527924 -2.686953 10.567786 22.183329 -20.376986 49.940071 -16.698269 -16.742533 28.465961 0.000139 -12.69501 0.000748 15.881604 -17.966843 2.951159 -0.105235 -1.513072 -4.270157 -5.037298 -5.612669 -2.947024 0.000368 -11.012825 0.007224 -6.100288 -15.886454 -3.845492 -0.001229 -0.0 -0.001325 -10.285114 -5.676508 -4.321874 11.029584 -11.301327 -2.3785 -1.382811 -14.22753 -6.315396 -0.622894 -26.920471 -3.804335 -4.386336 -49.919373 -3.626485 -13.710614 -7.36102 -3.710645 18.132931 -14.044769 -3.240283 0.005593 -18.799252 -0.000885 -0.423328 -8.467987 2.560809 -0.005242 0.017387 -0.000458 -15.922018 -20.094423 -5.460758 30.404755 -7.196046 1.72605 -0.005325 -8.14951 6e-05 -1.849785 -22.870543 -6.161561 -0.002187 -0.0 -0.002602 -176.939056 -1.170003 -7.082314 13.66918 -0.072298 0.225159 -81.359772 -5.034876 -5.357501 -5.559536 1.575056 2.116977 -0.993729 0.000767 0.0008 6.366444 -5.954166 -1.345195 5.781946 -0.044066 0.269456 -77.048363 0.63622 -6.811377 -5.556419 0.614548 1.636158 -0.994288 -0.000367 1.7e-05 
